<svg xmlns="http://www.w3.org/2000/svg" viewBox="0 0 1600 2000" preserveAspectRatio="xMidYMid slice" role="img">
  <defs>
    <linearGradient id="sky" x1="0" y1="0" x2="0" y2="1">
      <stop offset="0" stop-color="#1A2E47"/>
      <stop offset="0.62" stop-color="#B89B5E"/>
      <stop offset="0.78" stop-color="#E8C98F"/>
    </linearGradient>
    <radialGradient id="sun" cx="50%" cy="50%" r="50%">
      <stop offset="0" stop-color="#F0D69E" stop-opacity="0.95"/>
      <stop offset="0.5" stop-color="#F0D69E" stop-opacity="0.35"/>
      <stop offset="1" stop-color="#F0D69E" stop-opacity="0"/>
    </radialGradient>
    <linearGradient id="sea" x1="0" y1="0" x2="0" y2="1">
      <stop offset="0" stop-color="#5C4B3A"/>
      <stop offset="1" stop-color="#040F1D"/>
    </linearGradient>
    <linearGradient id="vig" x1="0" y1="0" x2="0" y2="1">
      <stop offset="0" stop-color="#000" stop-opacity="0.28"/>
      <stop offset="0.35" stop-color="#000" stop-opacity="0"/>
      <stop offset="0.8" stop-color="#000" stop-opacity="0"/>
      <stop offset="1" stop-color="#04203C" stop-opacity="0.55"/>
    </linearGradient>
  </defs>

  <rect width="1600" height="2000" fill="url(#sky)"/>
  
  <circle cx="395" cy="528" r="308" fill="url(#sun)"/>
  <circle cx="395" cy="528" r="128" fill="#F0D69E" opacity="0.9"/>

  <rect x="0" y="1158" width="1600" height="842" fill="url(#sea)"/>
  <rect x="0" y="1158" width="1600" height="6" fill="#E8C98F" opacity="0.5"/>
  <path d="M0,2000 L0,1154 Q133,1154 267,1107 Q400,1107 533,1131 Q667,1131 800,1102 Q933,1102 1067,1074 Q1200,1074 1333,1179 Q1467,1179 1600,1168 L1600,2000 Z" fill="#0A2236"/><path d="M0,2000 L0,1283 Q133,1283 267,1172 Q400,1172 533,1218 Q667,1218 800,1197 Q933,1197 1067,1168 Q1200,1168 1333,1258 Q1467,1258 1600,1283 L1600,2000 Z" fill="#06192B"/><path d="M0,2000 L0,1328 Q133,1328 267,1303 Q400,1303 533,1328 Q667,1328 800,1327 Q933,1327 1067,1317 Q1200,1317 1333,1265 Q1467,1265 1600,1307 L1600,2000 Z" fill="#040F1D"/>

  <rect width="1600" height="2000" fill="url(#vig)"/>
</svg>