<svg xmlns="http://www.w3.org/2000/svg" viewBox="0 0 1600 2000" preserveAspectRatio="xMidYMid slice" role="img">
  <defs>
    <linearGradient id="sky" x1="0" y1="0" x2="0" y2="1">
      <stop offset="0" stop-color="#03182C"/>
      <stop offset="0.62" stop-color="#0A2E50"/>
      <stop offset="0.78" stop-color="#3A5878"/>
    </linearGradient>
    <radialGradient id="sun" cx="50%" cy="50%" r="50%">
      <stop offset="0" stop-color="#D9D1C3" stop-opacity="0.95"/>
      <stop offset="0.5" stop-color="#D9D1C3" stop-opacity="0.35"/>
      <stop offset="1" stop-color="#D9D1C3" stop-opacity="0"/>
    </radialGradient>
    <linearGradient id="sea" x1="0" y1="0" x2="0" y2="1">
      <stop offset="0" stop-color="#06243F"/>
      <stop offset="1" stop-color="#020F1E"/>
    </linearGradient>
    <linearGradient id="vig" x1="0" y1="0" x2="0" y2="1">
      <stop offset="0" stop-color="#000" stop-opacity="0.28"/>
      <stop offset="0.35" stop-color="#000" stop-opacity="0"/>
      <stop offset="0.8" stop-color="#000" stop-opacity="0"/>
      <stop offset="1" stop-color="#04203C" stop-opacity="0.55"/>
    </linearGradient>
  </defs>

  <rect width="1600" height="2000" fill="url(#sky)"/>
  <circle cx="879" cy="281" r="1.6" fill="#F7F4EE" opacity="0.71"/><circle cx="776" cy="780" r="0.7" fill="#F7F4EE" opacity="0.54"/><circle cx="490" cy="446" r="1.8" fill="#F7F4EE" opacity="0.22"/><circle cx="35" cy="246" r="1.3" fill="#F7F4EE" opacity="0.42"/><circle cx="670" cy="663" r="1.6" fill="#F7F4EE" opacity="0.40"/><circle cx="404" cy="797" r="1.4" fill="#F7F4EE" opacity="0.49"/><circle cx="810" cy="90" r="0.7" fill="#F7F4EE" opacity="0.80"/><circle cx="1517" cy="767" r="1.4" fill="#F7F4EE" opacity="0.42"/><circle cx="1002" cy="299" r="1.5" fill="#F7F4EE" opacity="0.31"/><circle cx="695" cy="496" r="0.5" fill="#F7F4EE" opacity="0.31"/><circle cx="577" cy="202" r="1.9" fill="#F7F4EE" opacity="0.51"/><circle cx="417" cy="322" r="1.6" fill="#F7F4EE" opacity="0.78"/><circle cx="39" cy="311" r="0.8" fill="#F7F4EE" opacity="0.38"/><circle cx="1507" cy="671" r="0.5" fill="#F7F4EE" opacity="0.38"/><circle cx="272" cy="97" r="1.8" fill="#F7F4EE" opacity="0.60"/><circle cx="1189" cy="251" r="0.7" fill="#F7F4EE" opacity="0.29"/><circle cx="1502" cy="921" r="1.6" fill="#F7F4EE" opacity="0.49"/><circle cx="1309" cy="406" r="1.3" fill="#F7F4EE" opacity="0.23"/><circle cx="335" cy="350" r="0.9" fill="#F7F4EE" opacity="0.45"/><circle cx="439" cy="749" r="1.2" fill="#F7F4EE" opacity="0.51"/><circle cx="246" cy="494" r="1.5" fill="#F7F4EE" opacity="0.34"/><circle cx="179" cy="245" r="1.4" fill="#F7F4EE" opacity="0.36"/><circle cx="791" cy="179" r="1.2" fill="#F7F4EE" opacity="0.64"/><circle cx="1083" cy="762" r="1.2" fill="#F7F4EE" opacity="0.30"/><circle cx="145" cy="627" r="1.6" fill="#F7F4EE" opacity="0.69"/><circle cx="108" cy="444" r="1.8" fill="#F7F4EE" opacity="0.49"/><circle cx="785" cy="382" r="1.1" fill="#F7F4EE" opacity="0.78"/><circle cx="543" cy="750" r="1.3" fill="#F7F4EE" opacity="0.57"/><circle cx="1422" cy="573" r="1.5" fill="#F7F4EE" opacity="0.36"/><circle cx="866" cy="624" r="2.0" fill="#F7F4EE" opacity="0.29"/><circle cx="1545" cy="13" r="1.4" fill="#F7F4EE" opacity="0.38"/><circle cx="495" cy="555" r="1.0" fill="#F7F4EE" opacity="0.23"/><circle cx="606" cy="31" r="0.7" fill="#F7F4EE" opacity="0.53"/><circle cx="901" cy="682" r="1.6" fill="#F7F4EE" opacity="0.45"/><circle cx="393" cy="682" r="1.7" fill="#F7F4EE" opacity="0.46"/><circle cx="993" cy="515" r="1.5" fill="#F7F4EE" opacity="0.29"/><circle cx="455" cy="655" r="1.4" fill="#F7F4EE" opacity="0.49"/><circle cx="1264" cy="999" r="1.9" fill="#F7F4EE" opacity="0.27"/><circle cx="41" cy="853" r="1.6" fill="#F7F4EE" opacity="0.22"/><circle cx="724" cy="1081" r="1.9" fill="#F7F4EE" opacity="0.45"/><circle cx="741" cy="240" r="0.7" fill="#F7F4EE" opacity="0.26"/><circle cx="925" cy="9" r="1.4" fill="#F7F4EE" opacity="0.52"/><circle cx="411" cy="747" r="1.7" fill="#F7F4EE" opacity="0.59"/><circle cx="195" cy="83" r="0.9" fill="#F7F4EE" opacity="0.75"/><circle cx="1120" cy="189" r="0.4" fill="#F7F4EE" opacity="0.66"/><circle cx="787" cy="236" r="1.8" fill="#F7F4EE" opacity="0.51"/><circle cx="165" cy="815" r="0.8" fill="#F7F4EE" opacity="0.53"/><circle cx="1502" cy="751" r="0.9" fill="#F7F4EE" opacity="0.79"/><circle cx="1311" cy="931" r="1.5" fill="#F7F4EE" opacity="0.76"/><circle cx="1358" cy="391" r="1.2" fill="#F7F4EE" opacity="0.47"/><circle cx="1503" cy="973" r="1.8" fill="#F7F4EE" opacity="0.37"/><circle cx="1" cy="563" r="1.0" fill="#F7F4EE" opacity="0.44"/><circle cx="460" cy="598" r="0.5" fill="#F7F4EE" opacity="0.70"/><circle cx="756" cy="58" r="0.7" fill="#F7F4EE" opacity="0.66"/><circle cx="1500" cy="649" r="1.8" fill="#F7F4EE" opacity="0.60"/><circle cx="1280" cy="887" r="1.3" fill="#F7F4EE" opacity="0.38"/><circle cx="338" cy="227" r="2.0" fill="#F7F4EE" opacity="0.72"/><circle cx="1234" cy="277" r="1.7" fill="#F7F4EE" opacity="0.26"/><circle cx="707" cy="576" r="1.1" fill="#F7F4EE" opacity="0.27"/><circle cx="1035" cy="937" r="1.5" fill="#F7F4EE" opacity="0.80"/>
  <circle cx="527" cy="702" r="442" fill="url(#sun)"/>
  <circle cx="527" cy="702" r="184" fill="#D9D1C3" opacity="0.9"/>

  <rect x="0" y="1202" width="1600" height="798" fill="url(#sea)"/>
  <rect x="0" y="1202" width="1600" height="6" fill="#3A5878" opacity="0.5"/>
  <path d="M0,2000 L0,1242 Q133,1242 267,1105 Q400,1105 533,1273 Q667,1273 800,1131 Q933,1131 1067,1114 Q1200,1114 1333,1216 Q1467,1216 1600,1176 L1600,2000 Z" fill="#04203C"/><path d="M0,2000 L0,1262 Q133,1262 267,1192 Q400,1192 533,1222 Q667,1222 800,1225 Q933,1225 1067,1187 Q1200,1187 1333,1232 Q1467,1232 1600,1311 L1600,2000 Z" fill="#03182C"/><path d="M0,2000 L0,1305 Q133,1305 267,1369 Q400,1369 533,1299 Q667,1299 800,1318 Q933,1318 1067,1324 Q1200,1324 1333,1335 Q1467,1335 1600,1359 L1600,2000 Z" fill="#020F1E"/>

  <rect width="1600" height="2000" fill="url(#vig)"/>
</svg>