<svg xmlns="http://www.w3.org/2000/svg" viewBox="0 0 1600 2000" preserveAspectRatio="xMidYMid slice" role="img">
  <defs>
    <linearGradient id="sky" x1="0" y1="0" x2="0" y2="1">
      <stop offset="0" stop-color="#03182C"/>
      <stop offset="0.62" stop-color="#0A2E50"/>
      <stop offset="0.78" stop-color="#3A5878"/>
    </linearGradient>
    <radialGradient id="sun" cx="50%" cy="50%" r="50%">
      <stop offset="0" stop-color="#D9D1C3" stop-opacity="0.95"/>
      <stop offset="0.5" stop-color="#D9D1C3" stop-opacity="0.35"/>
      <stop offset="1" stop-color="#D9D1C3" stop-opacity="0"/>
    </radialGradient>
    <linearGradient id="sea" x1="0" y1="0" x2="0" y2="1">
      <stop offset="0" stop-color="#06243F"/>
      <stop offset="1" stop-color="#020F1E"/>
    </linearGradient>
    <linearGradient id="vig" x1="0" y1="0" x2="0" y2="1">
      <stop offset="0" stop-color="#000" stop-opacity="0.28"/>
      <stop offset="0.35" stop-color="#000" stop-opacity="0"/>
      <stop offset="0.8" stop-color="#000" stop-opacity="0"/>
      <stop offset="1" stop-color="#04203C" stop-opacity="0.55"/>
    </linearGradient>
  </defs>

  <rect width="1600" height="2000" fill="url(#sky)"/>
  <circle cx="1120" cy="739" r="0.6" fill="#F7F4EE" opacity="0.48"/><circle cx="1125" cy="795" r="1.7" fill="#F7F4EE" opacity="0.76"/><circle cx="326" cy="777" r="2.0" fill="#F7F4EE" opacity="0.35"/><circle cx="1533" cy="48" r="1.5" fill="#F7F4EE" opacity="0.56"/><circle cx="1233" cy="695" r="1.1" fill="#F7F4EE" opacity="0.40"/><circle cx="642" cy="19" r="1.2" fill="#F7F4EE" opacity="0.49"/><circle cx="1469" cy="789" r="1.6" fill="#F7F4EE" opacity="0.72"/><circle cx="1448" cy="106" r="0.7" fill="#F7F4EE" opacity="0.47"/><circle cx="524" cy="267" r="0.8" fill="#F7F4EE" opacity="0.49"/><circle cx="748" cy="287" r="1.0" fill="#F7F4EE" opacity="0.23"/><circle cx="1599" cy="685" r="1.3" fill="#F7F4EE" opacity="0.33"/><circle cx="1112" cy="732" r="1.4" fill="#F7F4EE" opacity="0.42"/><circle cx="81" cy="878" r="1.2" fill="#F7F4EE" opacity="0.37"/><circle cx="825" cy="487" r="1.5" fill="#F7F4EE" opacity="0.27"/><circle cx="647" cy="127" r="0.8" fill="#F7F4EE" opacity="0.36"/><circle cx="460" cy="693" r="1.0" fill="#F7F4EE" opacity="0.78"/><circle cx="30" cy="986" r="2.0" fill="#F7F4EE" opacity="0.59"/><circle cx="904" cy="771" r="0.6" fill="#F7F4EE" opacity="0.25"/><circle cx="180" cy="792" r="0.7" fill="#F7F4EE" opacity="0.52"/><circle cx="794" cy="97" r="0.6" fill="#F7F4EE" opacity="0.65"/><circle cx="389" cy="508" r="0.6" fill="#F7F4EE" opacity="0.62"/><circle cx="982" cy="218" r="0.7" fill="#F7F4EE" opacity="0.28"/><circle cx="1257" cy="158" r="0.5" fill="#F7F4EE" opacity="0.69"/><circle cx="456" cy="758" r="1.8" fill="#F7F4EE" opacity="0.41"/><circle cx="1484" cy="519" r="1.1" fill="#F7F4EE" opacity="0.69"/><circle cx="569" cy="593" r="0.5" fill="#F7F4EE" opacity="0.55"/><circle cx="311" cy="975" r="1.0" fill="#F7F4EE" opacity="0.33"/><circle cx="1318" cy="474" r="0.5" fill="#F7F4EE" opacity="0.37"/><circle cx="867" cy="324" r="2.0" fill="#F7F4EE" opacity="0.58"/><circle cx="1020" cy="542" r="1.4" fill="#F7F4EE" opacity="0.70"/><circle cx="1070" cy="153" r="2.0" fill="#F7F4EE" opacity="0.77"/><circle cx="1028" cy="25" r="1.6" fill="#F7F4EE" opacity="0.74"/><circle cx="870" cy="363" r="0.4" fill="#F7F4EE" opacity="0.39"/><circle cx="1427" cy="119" r="1.4" fill="#F7F4EE" opacity="0.59"/><circle cx="496" cy="753" r="0.5" fill="#F7F4EE" opacity="0.26"/><circle cx="864" cy="321" r="1.5" fill="#F7F4EE" opacity="0.41"/><circle cx="475" cy="640" r="0.7" fill="#F7F4EE" opacity="0.54"/><circle cx="1149" cy="81" r="0.5" fill="#F7F4EE" opacity="0.49"/><circle cx="1151" cy="509" r="1.3" fill="#F7F4EE" opacity="0.36"/><circle cx="672" cy="854" r="0.7" fill="#F7F4EE" opacity="0.80"/><circle cx="172" cy="844" r="1.4" fill="#F7F4EE" opacity="0.58"/><circle cx="947" cy="43" r="1.0" fill="#F7F4EE" opacity="0.78"/><circle cx="103" cy="544" r="1.7" fill="#F7F4EE" opacity="0.22"/><circle cx="1381" cy="305" r="2.0" fill="#F7F4EE" opacity="0.54"/><circle cx="563" cy="861" r="1.9" fill="#F7F4EE" opacity="0.60"/><circle cx="230" cy="955" r="0.6" fill="#F7F4EE" opacity="0.27"/><circle cx="621" cy="645" r="1.0" fill="#F7F4EE" opacity="0.37"/><circle cx="781" cy="824" r="1.9" fill="#F7F4EE" opacity="0.22"/><circle cx="790" cy="845" r="0.5" fill="#F7F4EE" opacity="0.29"/><circle cx="157" cy="94" r="0.6" fill="#F7F4EE" opacity="0.56"/><circle cx="1379" cy="226" r="1.0" fill="#F7F4EE" opacity="0.51"/><circle cx="1525" cy="755" r="1.4" fill="#F7F4EE" opacity="0.41"/><circle cx="106" cy="149" r="1.6" fill="#F7F4EE" opacity="0.42"/><circle cx="1191" cy="438" r="1.8" fill="#F7F4EE" opacity="0.46"/><circle cx="510" cy="536" r="0.9" fill="#F7F4EE" opacity="0.27"/><circle cx="895" cy="588" r="1.1" fill="#F7F4EE" opacity="0.60"/><circle cx="532" cy="416" r="0.5" fill="#F7F4EE" opacity="0.76"/><circle cx="948" cy="800" r="0.5" fill="#F7F4EE" opacity="0.74"/><circle cx="1345" cy="941" r="0.4" fill="#F7F4EE" opacity="0.46"/><circle cx="723" cy="905" r="0.5" fill="#F7F4EE" opacity="0.61"/>
  <circle cx="511" cy="489" r="390" fill="url(#sun)"/>
  <circle cx="511" cy="489" r="162" fill="#D9D1C3" opacity="0.9"/>

  <rect x="0" y="1101" width="1600" height="899" fill="url(#sea)"/>
  <rect x="0" y="1101" width="1600" height="6" fill="#3A5878" opacity="0.5"/>
  <path d="M0,2000 L0,1050 Q133,1050 267,1071 Q400,1071 533,1053 Q667,1053 800,1043 Q933,1043 1067,1042 Q1200,1042 1333,1165 Q1467,1165 1600,1071 L1600,2000 Z" fill="#04203C"/><path d="M0,2000 L0,1112 Q133,1112 267,1121 Q400,1121 533,1147 Q667,1147 800,1198 Q933,1198 1067,1137 Q1200,1137 1333,1204 Q1467,1204 1600,1135 L1600,2000 Z" fill="#03182C"/><path d="M0,2000 L0,1248 Q133,1248 267,1210 Q400,1210 533,1209 Q667,1209 800,1224 Q933,1224 1067,1193 Q1200,1193 1333,1236 Q1467,1236 1600,1195 L1600,2000 Z" fill="#020F1E"/>

  <rect width="1600" height="2000" fill="url(#vig)"/>
</svg>