<svg xmlns="http://www.w3.org/2000/svg" viewBox="0 0 1600 2000" preserveAspectRatio="xMidYMid slice" role="img">
  <defs>
    <linearGradient id="sky" x1="0" y1="0" x2="0" y2="1">
      <stop offset="0" stop-color="#03182C"/>
      <stop offset="0.62" stop-color="#0A2E50"/>
      <stop offset="0.78" stop-color="#3A5878"/>
    </linearGradient>
    <radialGradient id="sun" cx="50%" cy="50%" r="50%">
      <stop offset="0" stop-color="#D9D1C3" stop-opacity="0.95"/>
      <stop offset="0.5" stop-color="#D9D1C3" stop-opacity="0.35"/>
      <stop offset="1" stop-color="#D9D1C3" stop-opacity="0"/>
    </radialGradient>
    <linearGradient id="sea" x1="0" y1="0" x2="0" y2="1">
      <stop offset="0" stop-color="#06243F"/>
      <stop offset="1" stop-color="#020F1E"/>
    </linearGradient>
    <linearGradient id="vig" x1="0" y1="0" x2="0" y2="1">
      <stop offset="0" stop-color="#000" stop-opacity="0.28"/>
      <stop offset="0.35" stop-color="#000" stop-opacity="0"/>
      <stop offset="0.8" stop-color="#000" stop-opacity="0"/>
      <stop offset="1" stop-color="#04203C" stop-opacity="0.55"/>
    </linearGradient>
  </defs>

  <rect width="1600" height="2000" fill="url(#sky)"/>
  <circle cx="505" cy="931" r="1.7" fill="#F7F4EE" opacity="0.73"/><circle cx="1575" cy="432" r="1.5" fill="#F7F4EE" opacity="0.54"/><circle cx="1303" cy="92" r="1.7" fill="#F7F4EE" opacity="0.22"/><circle cx="354" cy="261" r="1.3" fill="#F7F4EE" opacity="0.21"/><circle cx="661" cy="647" r="0.5" fill="#F7F4EE" opacity="0.78"/><circle cx="175" cy="728" r="0.9" fill="#F7F4EE" opacity="0.47"/><circle cx="66" cy="198" r="1.0" fill="#F7F4EE" opacity="0.65"/><circle cx="1595" cy="738" r="0.6" fill="#F7F4EE" opacity="0.80"/><circle cx="972" cy="657" r="1.0" fill="#F7F4EE" opacity="0.37"/><circle cx="1504" cy="388" r="1.2" fill="#F7F4EE" opacity="0.80"/><circle cx="553" cy="401" r="1.9" fill="#F7F4EE" opacity="0.65"/><circle cx="1138" cy="522" r="1.6" fill="#F7F4EE" opacity="0.23"/><circle cx="1049" cy="370" r="1.2" fill="#F7F4EE" opacity="0.44"/><circle cx="334" cy="18" r="0.4" fill="#F7F4EE" opacity="0.66"/><circle cx="1196" cy="131" r="1.2" fill="#F7F4EE" opacity="0.62"/><circle cx="1580" cy="328" r="1.4" fill="#F7F4EE" opacity="0.74"/><circle cx="649" cy="336" r="2.0" fill="#F7F4EE" opacity="0.30"/><circle cx="829" cy="12" r="0.6" fill="#F7F4EE" opacity="0.46"/><circle cx="1224" cy="423" r="1.8" fill="#F7F4EE" opacity="0.54"/><circle cx="106" cy="465" r="1.7" fill="#F7F4EE" opacity="0.71"/><circle cx="1446" cy="142" r="1.6" fill="#F7F4EE" opacity="0.69"/><circle cx="1365" cy="10" r="1.7" fill="#F7F4EE" opacity="0.76"/><circle cx="161" cy="481" r="1.0" fill="#F7F4EE" opacity="0.49"/><circle cx="421" cy="804" r="0.9" fill="#F7F4EE" opacity="0.58"/><circle cx="823" cy="698" r="0.6" fill="#F7F4EE" opacity="0.29"/><circle cx="250" cy="771" r="1.7" fill="#F7F4EE" opacity="0.72"/><circle cx="619" cy="152" r="1.8" fill="#F7F4EE" opacity="0.26"/><circle cx="643" cy="869" r="1.9" fill="#F7F4EE" opacity="0.29"/><circle cx="583" cy="52" r="0.6" fill="#F7F4EE" opacity="0.63"/><circle cx="1146" cy="543" r="0.7" fill="#F7F4EE" opacity="0.31"/><circle cx="1544" cy="564" r="1.4" fill="#F7F4EE" opacity="0.69"/><circle cx="741" cy="475" r="1.3" fill="#F7F4EE" opacity="0.59"/><circle cx="436" cy="750" r="0.7" fill="#F7F4EE" opacity="0.74"/><circle cx="189" cy="537" r="0.8" fill="#F7F4EE" opacity="0.40"/><circle cx="431" cy="667" r="0.6" fill="#F7F4EE" opacity="0.25"/><circle cx="562" cy="733" r="1.4" fill="#F7F4EE" opacity="0.78"/><circle cx="1207" cy="85" r="1.7" fill="#F7F4EE" opacity="0.79"/><circle cx="1414" cy="832" r="0.6" fill="#F7F4EE" opacity="0.52"/><circle cx="1030" cy="352" r="0.9" fill="#F7F4EE" opacity="0.23"/><circle cx="94" cy="170" r="0.5" fill="#F7F4EE" opacity="0.57"/><circle cx="877" cy="750" r="1.0" fill="#F7F4EE" opacity="0.27"/><circle cx="513" cy="497" r="1.0" fill="#F7F4EE" opacity="0.61"/><circle cx="544" cy="961" r="0.6" fill="#F7F4EE" opacity="0.23"/><circle cx="505" cy="314" r="0.6" fill="#F7F4EE" opacity="0.51"/><circle cx="357" cy="382" r="1.6" fill="#F7F4EE" opacity="0.78"/><circle cx="285" cy="132" r="1.1" fill="#F7F4EE" opacity="0.39"/><circle cx="1190" cy="433" r="1.8" fill="#F7F4EE" opacity="0.66"/><circle cx="1244" cy="826" r="0.6" fill="#F7F4EE" opacity="0.51"/><circle cx="1528" cy="845" r="1.9" fill="#F7F4EE" opacity="0.40"/><circle cx="445" cy="540" r="2.0" fill="#F7F4EE" opacity="0.32"/><circle cx="1217" cy="214" r="0.7" fill="#F7F4EE" opacity="0.27"/><circle cx="793" cy="138" r="1.5" fill="#F7F4EE" opacity="0.79"/><circle cx="766" cy="731" r="1.1" fill="#F7F4EE" opacity="0.65"/><circle cx="1157" cy="410" r="1.5" fill="#F7F4EE" opacity="0.43"/><circle cx="55" cy="207" r="1.3" fill="#F7F4EE" opacity="0.34"/><circle cx="734" cy="632" r="2.0" fill="#F7F4EE" opacity="0.42"/><circle cx="326" cy="671" r="1.1" fill="#F7F4EE" opacity="0.68"/><circle cx="1540" cy="416" r="1.3" fill="#F7F4EE" opacity="0.77"/><circle cx="289" cy="502" r="1.3" fill="#F7F4EE" opacity="0.42"/><circle cx="704" cy="690" r="2.0" fill="#F7F4EE" opacity="0.23"/>
  <circle cx="1178" cy="526" r="310" fill="url(#sun)"/>
  <circle cx="1178" cy="526" r="129" fill="#D9D1C3" opacity="0.9"/>

  <rect x="0" y="1078" width="1600" height="922" fill="url(#sea)"/>
  <rect x="0" y="1078" width="1600" height="6" fill="#3A5878" opacity="0.5"/>
  <path d="M0,2000 L0,1030 Q133,1030 267,1100 Q400,1100 533,1070 Q667,1070 800,1040 Q933,1040 1067,981 Q1200,981 1333,1063 Q1467,1063 1600,1016 L1600,2000 Z" fill="#04203C"/><path d="M0,2000 L0,1136 Q133,1136 267,1148 Q400,1148 533,1063 Q667,1063 800,1188 Q933,1188 1067,1162 Q1200,1162 1333,1139 Q1467,1139 1600,1142 L1600,2000 Z" fill="#03182C"/><path d="M0,2000 L0,1166 Q133,1166 267,1153 Q400,1153 533,1195 Q667,1195 800,1161 Q933,1161 1067,1169 Q1200,1169 1333,1202 Q1467,1202 1600,1239 L1600,2000 Z" fill="#020F1E"/>

  <rect width="1600" height="2000" fill="url(#vig)"/>
</svg>