<svg xmlns="http://www.w3.org/2000/svg" viewBox="0 0 1600 2000" preserveAspectRatio="xMidYMid slice" role="img">
  <defs>
    <linearGradient id="sky" x1="0" y1="0" x2="0" y2="1">
      <stop offset="0" stop-color="#03182C"/>
      <stop offset="0.62" stop-color="#0A2E50"/>
      <stop offset="0.78" stop-color="#3A5878"/>
    </linearGradient>
    <radialGradient id="sun" cx="50%" cy="50%" r="50%">
      <stop offset="0" stop-color="#D9D1C3" stop-opacity="0.95"/>
      <stop offset="0.5" stop-color="#D9D1C3" stop-opacity="0.35"/>
      <stop offset="1" stop-color="#D9D1C3" stop-opacity="0"/>
    </radialGradient>
    <linearGradient id="sea" x1="0" y1="0" x2="0" y2="1">
      <stop offset="0" stop-color="#06243F"/>
      <stop offset="1" stop-color="#020F1E"/>
    </linearGradient>
    <linearGradient id="vig" x1="0" y1="0" x2="0" y2="1">
      <stop offset="0" stop-color="#000" stop-opacity="0.28"/>
      <stop offset="0.35" stop-color="#000" stop-opacity="0"/>
      <stop offset="0.8" stop-color="#000" stop-opacity="0"/>
      <stop offset="1" stop-color="#04203C" stop-opacity="0.55"/>
    </linearGradient>
  </defs>

  <rect width="1600" height="2000" fill="url(#sky)"/>
  <circle cx="482" cy="918" r="0.5" fill="#F7F4EE" opacity="0.41"/><circle cx="1224" cy="407" r="2.0" fill="#F7F4EE" opacity="0.44"/><circle cx="21" cy="443" r="1.7" fill="#F7F4EE" opacity="0.60"/><circle cx="288" cy="156" r="0.4" fill="#F7F4EE" opacity="0.67"/><circle cx="651" cy="877" r="1.4" fill="#F7F4EE" opacity="0.69"/><circle cx="224" cy="681" r="2.0" fill="#F7F4EE" opacity="0.55"/><circle cx="60" cy="422" r="1.7" fill="#F7F4EE" opacity="0.60"/><circle cx="796" cy="215" r="0.6" fill="#F7F4EE" opacity="0.49"/><circle cx="1435" cy="372" r="0.9" fill="#F7F4EE" opacity="0.32"/><circle cx="1210" cy="115" r="0.6" fill="#F7F4EE" opacity="0.28"/><circle cx="1357" cy="323" r="1.1" fill="#F7F4EE" opacity="0.31"/><circle cx="112" cy="802" r="1.2" fill="#F7F4EE" opacity="0.27"/><circle cx="1213" cy="362" r="1.0" fill="#F7F4EE" opacity="0.32"/><circle cx="732" cy="341" r="1.1" fill="#F7F4EE" opacity="0.27"/><circle cx="1593" cy="522" r="1.4" fill="#F7F4EE" opacity="0.36"/><circle cx="50" cy="800" r="1.8" fill="#F7F4EE" opacity="0.21"/><circle cx="556" cy="221" r="0.5" fill="#F7F4EE" opacity="0.24"/><circle cx="301" cy="852" r="0.8" fill="#F7F4EE" opacity="0.22"/><circle cx="129" cy="669" r="0.7" fill="#F7F4EE" opacity="0.22"/><circle cx="640" cy="140" r="0.5" fill="#F7F4EE" opacity="0.35"/><circle cx="1140" cy="379" r="0.9" fill="#F7F4EE" opacity="0.60"/><circle cx="1087" cy="667" r="1.1" fill="#F7F4EE" opacity="0.78"/><circle cx="1248" cy="590" r="0.4" fill="#F7F4EE" opacity="0.26"/><circle cx="1401" cy="650" r="0.5" fill="#F7F4EE" opacity="0.65"/><circle cx="691" cy="644" r="1.2" fill="#F7F4EE" opacity="0.67"/><circle cx="853" cy="975" r="1.8" fill="#F7F4EE" opacity="0.32"/><circle cx="1523" cy="537" r="1.6" fill="#F7F4EE" opacity="0.68"/><circle cx="774" cy="175" r="0.6" fill="#F7F4EE" opacity="0.78"/><circle cx="555" cy="405" r="0.7" fill="#F7F4EE" opacity="0.33"/><circle cx="1002" cy="835" r="1.4" fill="#F7F4EE" opacity="0.35"/><circle cx="521" cy="474" r="1.1" fill="#F7F4EE" opacity="0.26"/><circle cx="628" cy="185" r="1.3" fill="#F7F4EE" opacity="0.47"/><circle cx="589" cy="257" r="0.7" fill="#F7F4EE" opacity="0.64"/><circle cx="533" cy="818" r="0.4" fill="#F7F4EE" opacity="0.74"/><circle cx="438" cy="509" r="0.7" fill="#F7F4EE" opacity="0.52"/><circle cx="309" cy="505" r="0.6" fill="#F7F4EE" opacity="0.60"/><circle cx="1590" cy="809" r="1.3" fill="#F7F4EE" opacity="0.50"/><circle cx="1555" cy="82" r="1.4" fill="#F7F4EE" opacity="0.45"/><circle cx="1488" cy="220" r="0.6" fill="#F7F4EE" opacity="0.67"/><circle cx="974" cy="880" r="0.5" fill="#F7F4EE" opacity="0.60"/><circle cx="570" cy="332" r="1.9" fill="#F7F4EE" opacity="0.60"/><circle cx="1005" cy="478" r="1.1" fill="#F7F4EE" opacity="0.43"/><circle cx="114" cy="709" r="1.6" fill="#F7F4EE" opacity="0.75"/><circle cx="710" cy="501" r="1.7" fill="#F7F4EE" opacity="0.26"/><circle cx="278" cy="785" r="1.1" fill="#F7F4EE" opacity="0.48"/><circle cx="326" cy="308" r="0.9" fill="#F7F4EE" opacity="0.63"/><circle cx="37" cy="142" r="1.5" fill="#F7F4EE" opacity="0.48"/><circle cx="930" cy="934" r="1.3" fill="#F7F4EE" opacity="0.63"/><circle cx="54" cy="196" r="1.8" fill="#F7F4EE" opacity="0.54"/><circle cx="1194" cy="723" r="0.7" fill="#F7F4EE" opacity="0.62"/><circle cx="789" cy="448" r="0.4" fill="#F7F4EE" opacity="0.24"/><circle cx="571" cy="658" r="1.4" fill="#F7F4EE" opacity="0.79"/><circle cx="443" cy="914" r="0.5" fill="#F7F4EE" opacity="0.61"/><circle cx="635" cy="697" r="0.8" fill="#F7F4EE" opacity="0.48"/><circle cx="1520" cy="835" r="0.8" fill="#F7F4EE" opacity="0.68"/><circle cx="86" cy="613" r="1.2" fill="#F7F4EE" opacity="0.68"/><circle cx="967" cy="905" r="0.5" fill="#F7F4EE" opacity="0.46"/><circle cx="1236" cy="640" r="2.0" fill="#F7F4EE" opacity="0.77"/><circle cx="824" cy="839" r="0.7" fill="#F7F4EE" opacity="0.47"/><circle cx="337" cy="755" r="0.7" fill="#F7F4EE" opacity="0.44"/>
  <circle cx="1263" cy="787" r="419" fill="url(#sun)"/>
  <circle cx="1263" cy="787" r="175" fill="#D9D1C3" opacity="0.9"/>

  <rect x="0" y="1100" width="1600" height="900" fill="url(#sea)"/>
  <rect x="0" y="1100" width="1600" height="6" fill="#3A5878" opacity="0.5"/>
  <path d="M0,2000 L0,1131 Q133,1131 267,1030 Q400,1030 533,1047 Q667,1047 800,993 Q933,993 1067,994 Q1200,994 1333,1082 Q1467,1082 1600,1135 L1600,2000 Z" fill="#04203C"/><path d="M0,2000 L0,1188 Q133,1188 267,1142 Q400,1142 533,1095 Q667,1095 800,1158 Q933,1158 1067,1142 Q1200,1142 1333,1145 Q1467,1145 1600,1185 L1600,2000 Z" fill="#03182C"/><path d="M0,2000 L0,1213 Q133,1213 267,1261 Q400,1261 533,1216 Q667,1216 800,1247 Q933,1247 1067,1263 Q1200,1263 1333,1237 Q1467,1237 1600,1213 L1600,2000 Z" fill="#020F1E"/>

  <rect width="1600" height="2000" fill="url(#vig)"/>
</svg>