<svg xmlns="http://www.w3.org/2000/svg" viewBox="0 0 1600 2000" preserveAspectRatio="xMidYMid slice" role="img">
  <defs>
    <linearGradient id="sky" x1="0" y1="0" x2="0" y2="1">
      <stop offset="0" stop-color="#12446F"/>
      <stop offset="0.62" stop-color="#3E7CA6"/>
      <stop offset="0.78" stop-color="#BFE0E6"/>
    </linearGradient>
    <radialGradient id="sun" cx="50%" cy="50%" r="50%">
      <stop offset="0" stop-color="#F7F4EE" stop-opacity="0.95"/>
      <stop offset="0.5" stop-color="#F7F4EE" stop-opacity="0.35"/>
      <stop offset="1" stop-color="#F7F4EE" stop-opacity="0"/>
    </radialGradient>
    <linearGradient id="sea" x1="0" y1="0" x2="0" y2="1">
      <stop offset="0" stop-color="#1C6E8C"/>
      <stop offset="1" stop-color="#041F36"/>
    </linearGradient>
    <linearGradient id="vig" x1="0" y1="0" x2="0" y2="1">
      <stop offset="0" stop-color="#000" stop-opacity="0.28"/>
      <stop offset="0.35" stop-color="#000" stop-opacity="0"/>
      <stop offset="0.8" stop-color="#000" stop-opacity="0"/>
      <stop offset="1" stop-color="#04203C" stop-opacity="0.55"/>
    </linearGradient>
  </defs>

  <rect width="1600" height="2000" fill="url(#sky)"/>
  
  <circle cx="857" cy="782" r="500" fill="url(#sun)"/>
  <circle cx="857" cy="782" r="208" fill="#F7F4EE" opacity="0.9"/>

  <rect x="0" y="1089" width="1600" height="911" fill="url(#sea)"/>
  <rect x="0" y="1089" width="1600" height="6" fill="#BFE0E6" opacity="0.5"/>
  <path d="M0,2000 L0,1132 Q133,1132 267,1025 Q400,1025 533,1037 Q667,1037 800,1086 Q933,1086 1067,972 Q1200,972 1333,1014 Q1467,1014 1600,1134 L1600,2000 Z" fill="#0A3556"/><path d="M0,2000 L0,1126 Q133,1126 267,1154 Q400,1154 533,1121 Q667,1121 800,1148 Q933,1148 1067,1205 Q1200,1205 1333,1078 Q1467,1078 1600,1134 L1600,2000 Z" fill="#06294370"/><path d="M0,2000 L0,1227 Q133,1227 267,1169 Q400,1169 533,1186 Q667,1186 800,1166 Q933,1166 1067,1235 Q1200,1235 1333,1230 Q1467,1230 1600,1215 L1600,2000 Z" fill="#041F36"/>

  <rect width="1600" height="2000" fill="url(#vig)"/>
</svg>