<svg xmlns="http://www.w3.org/2000/svg" viewBox="0 0 1600 2000" preserveAspectRatio="xMidYMid slice" role="img">
  <defs>
    <linearGradient id="sky" x1="0" y1="0" x2="0" y2="1">
      <stop offset="0" stop-color="#1A2E47"/>
      <stop offset="0.62" stop-color="#B89B5E"/>
      <stop offset="0.78" stop-color="#E8C98F"/>
    </linearGradient>
    <radialGradient id="sun" cx="50%" cy="50%" r="50%">
      <stop offset="0" stop-color="#F0D69E" stop-opacity="0.95"/>
      <stop offset="0.5" stop-color="#F0D69E" stop-opacity="0.35"/>
      <stop offset="1" stop-color="#F0D69E" stop-opacity="0"/>
    </radialGradient>
    <linearGradient id="sea" x1="0" y1="0" x2="0" y2="1">
      <stop offset="0" stop-color="#5C4B3A"/>
      <stop offset="1" stop-color="#040F1D"/>
    </linearGradient>
    <linearGradient id="vig" x1="0" y1="0" x2="0" y2="1">
      <stop offset="0" stop-color="#000" stop-opacity="0.28"/>
      <stop offset="0.35" stop-color="#000" stop-opacity="0"/>
      <stop offset="0.8" stop-color="#000" stop-opacity="0"/>
      <stop offset="1" stop-color="#04203C" stop-opacity="0.55"/>
    </linearGradient>
  </defs>

  <rect width="1600" height="2000" fill="url(#sky)"/>
  
  <circle cx="961" cy="673" r="503" fill="url(#sun)"/>
  <circle cx="961" cy="673" r="209" fill="#F0D69E" opacity="0.9"/>

  <rect x="0" y="1144" width="1600" height="856" fill="url(#sea)"/>
  <rect x="0" y="1144" width="1600" height="6" fill="#E8C98F" opacity="0.5"/>
  <path d="M0,2000 L0,1123 Q133,1123 267,1189 Q400,1189 533,1179 Q667,1179 800,1192 Q933,1192 1067,1212 Q1200,1212 1333,1163 Q1467,1163 1600,1057 L1600,2000 Z" fill="#0A2236"/><path d="M0,2000 L0,1141 Q133,1141 267,1210 Q400,1210 533,1138 Q667,1138 800,1165 Q933,1165 1067,1211 Q1200,1211 1333,1266 Q1467,1266 1600,1253 L1600,2000 Z" fill="#06192B"/><path d="M0,2000 L0,1315 Q133,1315 267,1313 Q400,1313 533,1231 Q667,1231 800,1304 Q933,1304 1067,1230 Q1200,1230 1333,1290 Q1467,1290 1600,1281 L1600,2000 Z" fill="#040F1D"/>

  <rect width="1600" height="2000" fill="url(#vig)"/>
</svg>